<svg version="1.1" xmlns="http://www.w3.org/2000/svg" xmlns:xlink="http://www.w3.org/1999/xlink" data-browser="Chrome[54.0]" preserveAspectRatio="xMidYMid meet" viewBox="0 0 264 273"><g id="logo__item--business" class="logo__item">
                <g class="logo__item__inner" transform="translate(30.3046875 28.121436264843624) scale(1 1) rotate(0 0 0)">
                    <text dy="" dominant-baseline="auto" alignment-baseline="auto" font-family="'Montserrat-Bold'" font-size="32px" fill="#58595B" letter-spacing="29" font-weight="normal" font-style="normal">Think</text>
                </g>
            </g><g id="logo__item--tagline_1" class="logo__item">
                <g class="logo__item__inner" transform="translate(37.3046875 264.1214362648436) scale(1 1) rotate(0 0 0)">
                    <text dy="" dominant-baseline="auto" alignment-baseline="auto" font-family="'Montserrat-Bold'" font-size="32px" fill="#58595B" letter-spacing="35" font-weight="normal" font-style="normal">Deep</text>
                </g>
            </g><g id="logo__item--logo_0" class="logo__item">
    <g class="logo__item__inner" transform="translate(-15.230216268444792 -13.5) scale(3.0279094348608804 3.0279094348608804) rotate(0 0 0)">
        undefined
<g>
	<path fill="#58595B" d="M74.323,37.136l4.112-3.794c1.205,0.91,2.707,1.444,4.328,1.444c3.984,0,7.219-3.23,7.219-7.215   c0-3.99-3.234-7.218-7.219-7.218s-7.217,3.228-7.217,7.218c0,1.413,0.412,2.733,1.115,3.844l-4.266,3.932L74.323,37.136   L74.323,37.136z"></path>
	
		<linearGradient id="SVGID_1_" gradientUnits="userSpaceOnUse" x1="-1497.0073" y1="-7590.5728" x2="-1547.181" y2="-7502.3496" gradientTransform="matrix(0 1 -1 0 -7505.6875 1566.8262)">
		<stop offset="0" style="stop-color:#00ADEE"></stop>
		<stop offset="0.0019" style="stop-color:#01ADEE"></stop>
		<stop offset="0.061" style="stop-color:#15ABE6"></stop>
		<stop offset="0.1194" style="stop-color:#22A9E2"></stop>
		<stop offset="0.1758" style="stop-color:#26A9E0"></stop>
		<stop offset="0.3576" style="stop-color:#1B75BB"></stop>
		<stop offset="0.5879" style="stop-color:#2B388F"></stop>
		<stop offset="0.8121" style="stop-color:#292666"></stop>
		<stop offset="1" style="stop-color:#150C46"></stop>
	</linearGradient>
	<path fill="url(#SVGID_1_)" d="M55.447,27.493c0-2.295,1.867-4.162,4.161-4.162c2.295,0,4.162,1.867,4.162,4.162   c0,0.615-0.136,1.199-0.376,1.726c-0.375,0.813-1.001,1.489-1.783,1.922c-0.592,0.326-1.275,0.514-2.003,0.514   c-0.548,0-1.074-0.11-1.56-0.305c-0.834-0.342-1.543-0.944-2.005-1.713C55.666,29.011,55.447,28.278,55.447,27.493L55.447,27.493z    M82.764,44.836c2.297,0,4.162,1.867,4.162,4.162c0,1.838-1.195,3.399-2.85,3.95c-0.416,0.138-0.854,0.211-1.313,0.211   c-0.453,0-0.896-0.073-1.309-0.211c-0.24-0.078-0.469-0.183-0.691-0.306c-0.781-0.428-1.41-1.103-1.781-1.916   c-0.244-0.527-0.381-1.111-0.381-1.729c0-0.616,0.137-1.2,0.381-1.729c0.371-0.811,1-1.486,1.781-1.919   C81.355,45.023,82.039,44.836,82.764,44.836L82.764,44.836z M86.926,70.502c0,2.295-1.865,4.162-4.162,4.162   c-2.295,0-4.162-1.867-4.162-4.162c0-1.838,1.199-3.397,2.854-3.947c0.412-0.139,0.855-0.214,1.309-0.214   c0.459,0,0.896,0.075,1.313,0.214C85.73,67.104,86.926,68.664,86.926,70.502L86.926,70.502z M63.771,70.427   c0,2.295-1.867,4.161-4.162,4.161c-1.835,0-3.397-1.196-3.948-2.853c-0.135-0.412-0.213-0.85-0.213-1.309   c0-0.456,0.078-0.899,0.213-1.31c0.045-0.138,0.098-0.271,0.157-0.403c0.37-0.816,0.996-1.492,1.772-1.925   c0.6-0.334,1.289-0.524,2.019-0.524c0.746,0,1.45,0.198,2.056,0.545c0.771,0.438,1.392,1.122,1.752,1.943   C63.645,69.264,63.771,69.832,63.771,70.427L63.771,70.427z M36.8,74.588c-2.295,0-4.163-1.866-4.163-4.161   s1.868-4.162,4.163-4.162c1.835,0,3.399,1.2,3.949,2.853c0.135,0.41,0.211,0.854,0.211,1.31c0,0.459-0.076,0.896-0.211,1.309   C40.199,73.392,38.636,74.588,36.8,74.588L36.8,74.588z M36.8,53.061c-2.295,0-4.163-1.867-4.163-4.162   c0-2.297,1.868-4.162,4.163-4.162c0.741,0,1.437,0.196,2.041,0.54c0.777,0.436,1.397,1.116,1.763,1.935   c0.229,0.516,0.357,1.087,0.357,1.687c0,0.631-0.141,1.229-0.396,1.766c-0.378,0.811-1.012,1.479-1.797,1.9   C38.182,52.88,37.509,53.061,36.8,53.061L36.8,53.061z M51.515,37.292l4.142-3.763c1.137,0.746,2.492,1.182,3.952,1.182   c1.616,0,3.108-0.532,4.313-1.429l12.754,11.846c-0.713,1.119-1.125,2.446-1.125,3.87c0,1.426,0.412,2.751,1.125,3.872   L63.963,64.672c-1.209-0.918-2.719-1.463-4.354-1.463c-1.611,0-3.098,0.529-4.297,1.418L42.85,52.828   c0.737-1.132,1.167-2.479,1.167-3.93c0-1.397-0.399-2.699-1.086-3.804l4.211-3.826l-1.917-1.796l-4.056,3.685   c-1.213-0.923-2.728-1.473-4.369-1.473c-3.987,0-7.219,3.23-7.219,7.215c0,3.987,3.232,7.218,7.219,7.218   c1.589,0,3.057-0.517,4.249-1.387l12.478,11.817c-0.495,0.769-0.844,1.637-1.014,2.57h-8.618c-0.617-3.358-3.557-5.908-7.095-5.908   c-3.987,0-7.219,3.23-7.219,7.218c0,3.986,3.232,7.215,7.219,7.215c3.539,0,6.479-2.548,7.095-5.906h8.618   c0.617,3.358,3.557,5.906,7.095,5.906c3.987,0,7.218-3.229,7.218-7.215c0-1.405-0.401-2.712-1.096-3.823l12.727-11.817   c0.867,0.649,1.887,1.104,2.998,1.31v7.312c-3.359,0.615-5.904,3.557-5.904,7.095c0,3.987,3.229,7.218,7.213,7.218   s7.219-3.23,7.219-7.218c0-3.538-2.549-6.479-5.906-7.095v-7.312c3.357-0.615,5.906-3.557,5.906-7.098   c0-3.987-3.234-7.218-7.219-7.218c-1.617,0-3.105,0.532-4.307,1.429L65.699,31.363c0.715-1.119,1.127-2.446,1.127-3.87   c0-3.987-3.23-7.218-7.218-7.218c-3.983,0-7.218,3.23-7.218,7.218c0,1.575,0.512,3.035,1.369,4.222l-4.162,3.781L51.515,37.292   L51.515,37.292z"></path>
	
		<linearGradient id="SVGID_2_" gradientUnits="userSpaceOnUse" x1="-1487.0879" y1="-7584.9287" x2="-1537.2605" y2="-7496.707" gradientTransform="matrix(0 1 -1 0 -7505.6875 1566.8262)">
		<stop offset="0" style="stop-color:#00ADEE"></stop>
		<stop offset="0.0019" style="stop-color:#01ADEE"></stop>
		<stop offset="0.061" style="stop-color:#15ABE6"></stop>
		<stop offset="0.1194" style="stop-color:#22A9E2"></stop>
		<stop offset="0.1758" style="stop-color:#26A9E0"></stop>
		<stop offset="0.3576" style="stop-color:#1B75BB"></stop>
		<stop offset="0.5879" style="stop-color:#2B388F"></stop>
		<stop offset="0.8121" style="stop-color:#292666"></stop>
		<stop offset="1" style="stop-color:#150C46"></stop>
	</linearGradient>
	<path fill="url(#SVGID_2_)" d="M13.644,34.786c3.542,0,6.486-2.555,7.098-5.919l8.965-0.016c0.168,0.918,0.51,1.773,0.992,2.532   L17.921,43.188c-1.198-0.884-2.675-1.408-4.278-1.408c-3.984,0-7.216,3.231-7.216,7.218c0,3.541,2.546,6.482,5.906,7.098v7.312   c-3.36,0.615-5.906,3.557-5.906,7.095c0,3.987,3.232,7.218,7.216,7.218s7.217-3.23,7.217-7.218c0-3.538-2.548-6.479-5.909-7.095   v-7.312c2.963-0.545,5.288-2.895,5.802-5.864h6.837c-0.063-0.436-0.098-0.879-0.098-1.333c0-0.436,0.034-0.863,0.092-1.286h-6.86   c-0.177-0.913-0.525-1.76-1.013-2.516l12.763-11.789c1.206,0.902,2.7,1.442,4.326,1.442c1.603,0,3.082-0.524,4.278-1.411   l12.46,11.684c-0.495,0.772-0.854,1.651-1.024,2.589h-6.499c0.058,0.423,0.09,0.85,0.09,1.286c0,0.454-0.033,0.897-0.095,1.333   h6.503c0.617,3.36,3.557,5.905,7.095,5.905c3.987,0,7.218-3.23,7.218-7.215c0-1.418-0.412-2.735-1.113-3.849l4.264-3.932   l-1.925-1.786l-4.114,3.794c-1.205-0.908-2.701-1.445-4.329-1.445c-1.601,0-3.082,0.524-4.281,1.408L42.868,31.428   c0.726-1.124,1.148-2.461,1.148-3.896c0-3.987-3.232-7.218-7.216-7.218c-3.545,0-6.489,2.553-7.101,5.919l-8.963,0.016   c-0.621-3.356-3.562-5.896-7.093-5.896c-3.987,0-7.216,3.228-7.216,7.218C6.427,31.556,9.657,34.786,13.644,34.786L13.644,34.786z"></path>
</g>

    </g>
</g><g id="logo__item--shape_1" class="logo__item">
    <g class="logo__item__inner" transform="translate(-11.5 -108) scale(2.888888888888889 2.888888888888889) rotate(0 0 0)">
        undefined
<g>
	<path fill="#58595B" d="M6,52c0,0,76.6,0,84.3,0c1.1,0,2.7,0,2.7,0c2,0,2-2,0-2c-7,0-75.6,0-83.4,0C8.5,50,8,50,6,50   C5,50,5,52,6,52C6,52,5,52,6,52z"></path>
</g>

    </g>
</g><g id="logo__item--shape_2" class="logo__item">
    <g class="logo__item__inner" transform="translate(-11.5 84) scale(2.888888888888889 2.888888888888889) rotate(0 0 0)">
        undefined
<g>
	<path fill="#58595B" d="M6,52c0,0,76.6,0,84.3,0c1.1,0,2.7,0,2.7,0c2,0,2-2,0-2c-7,0-75.6,0-83.4,0C8.5,50,8,50,6,50   C5,50,5,52,6,52C6,52,5,52,6,52z"></path>
</g>

    </g>
</g></svg>